<?xml version="1.0" standalone="no"?>
<!DOCTYPE svg PUBLIC "-//W3C//DTD SVG 20010904//EN"
 "http://www.w3.org/TR/2001/REC-SVG-20010904/DTD/svg10.dtd">
<svg version="1.0" xmlns="http://www.w3.org/2000/svg"
 width="672.000000pt" height="556.000000pt" viewBox="0 0 672.000000 556.000000"
 preserveAspectRatio="xMidYMid meet">

<g transform="translate(0.000000,556.000000) scale(0.100000,-0.100000)"
fill="#000000" stroke="none">
<path d="M4690 4333 c-122 -12 -286 -56 -372 -99 l-47 -24 -1806 0 c-1774 0
-1805 0 -1805 -19 0 -28 46 -79 92 -102 96 -49 89 -49 1433 -50 1206 -1 1257
-1 1195 -18 -166 -43 -309 -157 -387 -307 -75 -144 -74 -137 -70 -833 3 -595
4 -619 25 -691 109 -382 343 -634 747 -807 131 -56 220 -74 407 -80 l167 -6 3
969 3 969 22 65 c31 91 86 179 152 243 63 63 244 174 651 402 146 81 267 150
270 152 12 12 -107 104 -187 145 -95 49 -170 74 -248 82 -80 8 -207 13 -245 9z
m398 -240 c21 -28 14 -70 -14 -92 -15 -12 -32 -21 -39 -21 -27 0 -65 41 -65
70 0 59 82 89 118 43z m-253 -102 l30 -7 -45 -23 c-45 -24 -182 -99 -320 -176
-152 -85 -208 -115 -219 -115 -19 0 -13 95 7 112 9 9 73 46 142 84 69 37 152
83 185 101 51 28 69 32 125 32 36 -1 79 -4 95 -8z m-1398 -439 c76 -54 198
-140 272 -192 158 -110 193 -139 231 -194 50 -73 60 -130 60 -334 0 -161 -2
-183 -15 -178 -14 5 -109 72 -511 358 -83 59 -172 130 -198 159 -76 85 -106
228 -72 342 19 62 63 137 81 137 8 0 77 -44 152 -98z"/>
<path d="M5390 3982 c-157 -83 -579 -319 -682 -379 -121 -72 -200 -139 -248
-212 -30 -45 -75 -171 -68 -190 1 -5 89 54 193 132 105 78 222 165 260 193 39
28 158 116 265 195 l195 144 375 5 c436 6 435 5 100 80 -324 74 -313 73 -390
32z"/>
</g>
</svg>
