<?xml version="1.0" standalone="no"?>
<!DOCTYPE svg PUBLIC "-//W3C//DTD SVG 20010904//EN"
 "http://www.w3.org/TR/2001/REC-SVG-20010904/DTD/svg10.dtd">
<svg version="1.0" xmlns="http://www.w3.org/2000/svg"
 width="512.000000pt" height="512.000000pt" viewBox="0 0 512.000000 512.000000"
 preserveAspectRatio="xMidYMid meet">

<g transform="translate(0.000000,512.000000) scale(0.100000,-0.100000)"
fill="#000000" stroke="none">
<path d="M3500 3726 c-72 -16 -156 -44 -202 -67 -36 -18 -92 -19 -1438 -19
l-1401 0 3 -21 c5 -33 66 -76 133 -94 51 -13 191 -15 1050 -16 815 -1 981 -3
938 -13 -171 -42 -316 -194 -353 -370 -8 -37 -10 -202 -8 -528 3 -401 6 -481
20 -528 80 -270 226 -448 476 -578 166 -87 232 -105 410 -110 l153 -4 -1 748
c-1 668 1 755 16 804 33 110 87 184 183 249 56 39 267 161 525 306 l140 78
-40 34 c-56 49 -149 98 -228 122 -55 17 -93 21 -195 20 -69 -1 -151 -7 -181
-13z m408 -168 c7 -7 12 -24 12 -38 0 -14 -5 -31 -12 -38 -7 -7 -24 -12 -38
-12 -14 0 -31 5 -38 12 -7 7 -12 24 -12 38 0 14 5 31 12 38 7 7 24 12 38 12
14 0 31 -5 38 -12z m-178 -86 c0 -6 -414 -240 -441 -251 -6 -2 -9 17 -7 45 l3
47 156 86 156 86 66 -3 c37 -2 67 -7 67 -10z m-988 -419 c118 -84 232 -171
253 -194 61 -68 68 -95 73 -276 2 -90 1 -163 -3 -163 -17 0 -548 385 -574 417
-40 48 -61 113 -61 184 0 63 9 92 46 157 17 28 29 40 38 35 7 -5 109 -76 228
-160z"/>
<path d="M4140 3463 c-25 -14 -151 -84 -280 -156 -291 -161 -349 -197 -394
-247 -43 -47 -82 -122 -92 -175 l-7 -39 54 39 c30 22 173 127 319 234 146 107
286 209 311 228 l46 33 284 0 c164 0 279 4 273 9 -18 17 -400 102 -447 100
-12 -1 -42 -12 -67 -26z"/>
</g>
</svg>
